<svg height="512pt" fill="#3d3d3e" viewBox="0 0 512 512" width="512pt" xmlns="http://www.w3.org/2000/svg"><path d="M290.09 206.148a18.63 18.63 0 01-10.985-3.582 18.63 18.63 0 01-6.777-20.93l16.871-51.534-44.02-31.836a18.63 18.63 0 01-6.827-20.895 18.635 18.635 0 0117.777-12.933h54.348l16.644-51.5A18.639 18.639 0 01344.902 0c8.133 0 15.282 5.2 17.782 12.938l5.07 15.683c1.7 5.254-1.184 10.89-6.442 12.59-5.253 1.7-10.89-1.184-12.59-6.438l-3.82-11.816L329.211 71.5a18.631 18.631 0 01-17.781 12.938h-51.242l41.507 30.023a18.622 18.622 0 016.809 20.953l-15.899 48.574 41.282-30.133a18.632 18.632 0 0122.035 0l41.281 30.133-15.898-48.574a18.63 18.63 0 016.808-20.957l41.508-30.02h-17.543c-5.52 0-10-4.476-10-10s4.48-10 10-10h21.602c8.129 0 15.273 5.2 17.777 12.934a18.635 18.635 0 01-6.828 20.895l-44.02 31.836 16.868 51.535a18.63 18.63 0 01-6.774 20.93 18.634 18.634 0 01-22-.024l-43.8-31.969-43.798 31.969a18.64 18.64 0 01-11.015 3.605zm81.992-124.41a9.96 9.96 0 01-7.195-3.054l-.16-.164c-3.766-4.04-3.547-10.368.488-14.137 4.027-3.758 10.34-3.547 14.11.465 3.784 3.976 3.655 10.265-.302 14.082a9.952 9.952 0 01-6.941 2.808zm.617-10.66l-.66.617zm0 0M389.664 512a19.51 19.51 0 01-1.96-.102 18.443 18.443 0 01-16.161-14.586l-12.496-59.433-60.418-6.219a18.433 18.433 0 01-16.191-14.547 18.432 18.432 0 018.875-19.875l52.664-30.25-12.758-59.383a18.437 18.437 0 018.832-19.894 18.431 18.431 0 0121.644 2.3l45.047 40.739 52.535-30.484a18.434 18.434 0 0121.649 2.25 18.442 18.442 0 014.504 21.296l-24.825 55.43 45.223 40.543a18.438 18.438 0 014.55 21.285 18.44 18.44 0 01-18.862 10.864l-60.391-6.48-24.582 55.538A18.427 18.427 0 01389.664 512zm-84.324-99.754l56.851 5.852a18.422 18.422 0 0116.2 14.586l11.761 55.925 23.13-52.257a18.426 18.426 0 0118.878-10.903l56.828 6.098-42.558-38.149a18.432 18.432 0 01-4.532-21.32l23.36-52.16-49.43 28.684a18.433 18.433 0 01-21.68-2.278l-42.39-38.336 12.004 55.875a18.424 18.424 0 01-8.867 19.918zm0 0M100.426 366.91c-.625 0-1.258-.035-1.895-.101a17.804 17.804 0 01-15.61-14.086l-11.464-54.52-55.418-5.703A17.806 17.806 0 01.4 278.45a17.813 17.813 0 018.574-19.204l48.304-27.75-11.699-54.465a17.81 17.81 0 018.531-19.222 17.813 17.813 0 0120.91 2.222l41.32 37.367 48.184-27.96a17.821 17.821 0 0120.918 2.175 17.812 17.812 0 014.348 20.574l-22.77 50.844L208.5 280.22a17.808 17.808 0 014.395 20.562 17.804 17.804 0 01-18.22 10.496l-55.394-5.945-22.547 50.941a17.815 17.815 0 01-16.308 10.637zm-75.739-93.625l50.372 5.184a17.804 17.804 0 0115.648 14.09l10.422 49.558 20.492-46.305a17.795 17.795 0 0118.242-10.53l50.348 5.402-37.703-33.801a17.797 17.797 0 01-4.38-20.598l20.696-46.219-43.797 25.418a17.803 17.803 0 01-20.945-2.203l-37.559-33.965 10.637 49.508a17.797 17.797 0 01-8.566 19.238zm0 0M134.094 73.813c-5.524 0-10-4.477-10-10V50c0-5.523 4.476-10 10-10s10 4.477 10 10v13.813c0 5.523-4.477 10-10 10zm0 0M134.094 140c-5.524 0-10-4.477-10-10v-13.813c0-5.523 4.476-10 10-10s10 4.477 10 10V130c0 5.523-4.477 10-10 10zm0 0M174.094 100H160.28c-5.52 0-10-4.477-10-10s4.48-10 10-10h13.813c5.523 0 10 4.477 10 10s-4.477 10-10 10zm0 0M107.906 100H94.094c-5.524 0-10-4.477-10-10s4.476-10 10-10h13.812c5.524 0 10 4.477 10 10s-4.476 10-10 10zm0 0M171.781 405.621c-5.52 0-10-4.476-10-10v-13.808c0-5.524 4.48-10 10-10 5.524 0 10 4.476 10 10v13.808c0 5.524-4.476 10-10 10zm0 0M171.781 471.813c-5.52 0-10-4.477-10-10V448c0-5.523 4.48-10 10-10 5.524 0 10 4.477 10 10v13.813c0 5.523-4.476 10-10 10zm0 0M211.781 431.813h-13.808c-5.524 0-10-4.477-10-10s4.476-10 10-10h13.808c5.524 0 10 4.476 10 10s-4.476 10-10 10zm0 0M145.594 431.813H131.78c-5.52 0-10-4.477-10-10s4.48-10 10-10h13.813c5.523 0 10 4.476 10 10s-4.477 10-10 10zm0 0M30 511.934c-16.543 0-30-13.457-30-30s13.457-30 30-30 30 13.457 30 30-13.457 30-30 30zm0-40c-5.516 0-10 4.484-10 10 0 5.511 4.484 10 10 10s10-4.489 10-10c0-5.516-4.484-10-10-10zm0 0M468 266.129c-16.543 0-30-13.461-30-30 0-16.543 13.457-30 30-30s30 13.457 30 30c0 16.539-13.457 30-30 30zm0-40c-5.516 0-10 4.484-10 10 0 5.512 4.484 10 10 10s10-4.488 10-10c0-5.516-4.484-10-10-10zm0 0"/></svg>